<svg width="225" height="166" viewBox="0 0 225 166" fill="none" xmlns="http://www.w3.org/2000/svg">
  <rect width="225" height="166" rx="12" fill="white"/>
  <rect x="15" y="16" width="9" height="8" rx="2" fill="#E9E9E9"/>
  <rect x="48" y="17" width="26" height="7" rx="3" fill="#E5E5E5"/>
  <rect x="117" y="18" width="61" height="6" rx="3" fill="#EEEEEE"/>
  <rect x="187" y="17" width="22" height="7" rx="3.5" fill="#16B653"/>
  <rect x="15" y="44" width="22" height="3" rx="1.5" fill="#E6E6E6"/>
  <rect x="15" y="57" width="22" height="3" rx="1.5" fill="#E6E6E6"/>
  <rect x="15" y="70" width="22" height="3" rx="1.5" fill="#E6E6E6"/>
  <rect x="15" y="83" width="22" height="3" rx="1.5" fill="#E6E6E6"/>
  <rect x="48" y="35" width="55" height="73" rx="4" fill="#EEEEEE"/>
  <rect x="109" y="35" width="55" height="73" rx="4" fill="#EEEEEE"/>
  <rect x="170" y="35" width="40" height="73" rx="4" fill="#EEEEEE"/>
  <rect x="48" y="116" width="81" height="5" rx="2.5" fill="#E9E9E9"/>
  <rect x="48" y="130" width="164" height="7" rx="2" fill="#EEEEEE"/>
  <rect x="48" y="143" width="164" height="7" rx="2" fill="#EEEEEE"/>
</svg>
