<svg width="225" height="166" viewBox="0 0 225 166" fill="none" xmlns="http://www.w3.org/2000/svg">
  <rect width="225" height="166" fill="none"/>
  <g transform="translate(4 0)">
    <rect x="21" y="44" width="79" height="107" rx="6" transform="rotate(-14 21 44)" fill="#F2F2F2" stroke="white" stroke-width="4"/>
    <rect x="132" y="42" width="79" height="107" rx="6" transform="rotate(14 132 42)" fill="#F2F2F2" stroke="white" stroke-width="4"/>
    <rect x="58" y="0" width="83" height="159" rx="8" fill="white"/>
    <rect x="60" y="2" width="79" height="155" rx="7" fill="white" stroke="#EEEEEE" stroke-width="2"/>
    <rect x="64" y="8" width="7" height="2" rx="1" fill="#E6E6E6"/>
    <rect x="96" y="8" width="16" height="2" rx="1" fill="#E6E6E6"/>
    <rect x="84" y="33" width="43" height="5" rx="2.5" fill="#E5E5E5"/>
    <rect x="75" y="49" width="58" height="3" rx="1.5" fill="#E9E9E9"/>
    <rect x="75" y="58" width="58" height="3" rx="1.5" fill="#E9E9E9"/>
    <rect x="75" y="74" width="31" height="66" rx="3" fill="#EEEEEE"/>
    <rect x="111" y="74" width="31" height="66" rx="3" fill="#EEEEEE"/>
    <rect x="75" y="142" width="58" height="10" rx="3" fill="#16B653"/>
  </g>
</svg>
