<svg width="1200" height="800" viewBox="0 0 1200 800" fill="none" xmlns="http://www.w3.org/2000/svg">
  <rect width="1200" height="800" rx="44" fill="#F4F6FA"/>
  <rect x="80" y="74" width="1040" height="652" rx="36" fill="#FFFFFF" stroke="#C5D0E0" stroke-width="4"/>
  <rect x="132" y="132" width="284" height="42" rx="21" fill="#1D3461"/>
  <rect x="132" y="208" width="492" height="26" rx="13" fill="#E2E8F0"/>
  <rect x="132" y="260" width="390" height="26" rx="13" fill="#E2E8F0"/>
  <rect x="132" y="342" width="238" height="58" rx="29" fill="#F5821F"/>
  <rect x="696" y="132" width="320" height="254" rx="28" fill="#E8EEF7"/>
  <rect x="744" y="176" width="224" height="26" rx="13" fill="#1D3461"/>
  <rect x="744" y="236" width="180" height="18" rx="9" fill="#C5D0E0"/>
  <rect x="744" y="280" width="214" height="18" rx="9" fill="#C5D0E0"/>
  <rect x="132" y="492" width="268" height="156" rx="26" fill="#FFF3E8"/>
  <rect x="466" y="492" width="268" height="156" rx="26" fill="#E8EEF7"/>
  <rect x="800" y="492" width="268" height="156" rx="26" fill="#FFF3E8"/>
</svg>
