<svg width="1200" height="800" viewBox="0 0 1200 800" fill="none" xmlns="http://www.w3.org/2000/svg">
  <rect width="1200" height="800" rx="44" fill="#0F2040"/>
  <rect x="78" y="74" width="1044" height="652" rx="36" fill="#1D3461"/>
  <rect x="124" y="122" width="468" height="556" rx="28" fill="#FAFBFC"/>
  <rect x="164" y="166" width="198" height="28" rx="14" fill="#F5821F"/>
  <rect x="164" y="238" width="338" height="20" rx="10" fill="#C5D0E0"/>
  <rect x="164" y="284" width="278" height="20" rx="10" fill="#E2E8F0"/>
  <rect x="164" y="366" width="156" height="52" rx="26" fill="#1D3461"/>
  <rect x="648" y="122" width="424" height="556" rx="28" fill="#0B1830"/>
  <rect x="700" y="178" width="130" height="18" rx="9" fill="#F5821F"/>
  <rect x="700" y="232" width="286" height="16" rx="8" fill="#E8EEF7"/>
  <rect x="700" y="276" width="236" height="16" rx="8" fill="#E8EEF7"/>
  <rect x="700" y="320" width="304" height="16" rx="8" fill="#E8EEF7"/>
  <rect x="700" y="408" width="250" height="16" rx="8" fill="#FFDBB5"/>
  <rect x="700" y="452" width="318" height="16" rx="8" fill="#E8EEF7"/>
  <rect x="700" y="496" width="212" height="16" rx="8" fill="#E8EEF7"/>
</svg>
