<svg width="1200" height="800" viewBox="0 0 1200 800" fill="none" xmlns="http://www.w3.org/2000/svg">
  <rect width="1200" height="800" rx="44" fill="#FAFBFC"/>
  <rect x="70" y="70" width="1060" height="88" rx="24" fill="#0F2040"/>
  <circle cx="112" cy="114" r="12" fill="#F5821F"/>
  <circle cx="152" cy="114" r="12" fill="#FFDBB5"/>
  <circle cx="192" cy="114" r="12" fill="#E8EEF7"/>
  <rect x="82" y="214" width="384" height="386" rx="28" fill="#FFFFFF" stroke="#E2E8F0" stroke-width="4"/>
  <rect x="126" y="260" width="178" height="24" rx="12" fill="#1D3461"/>
  <rect x="126" y="314" width="286" height="18" rx="9" fill="#C5D0E0"/>
  <rect x="126" y="354" width="238" height="18" rx="9" fill="#E2E8F0"/>
  <rect x="126" y="426" width="296" height="98" rx="22" fill="#FFF3E8"/>
  <rect x="168" y="464" width="156" height="20" rx="10" fill="#F5821F"/>
  <rect x="520" y="214" width="598" height="386" rx="28" fill="#FFFFFF" stroke="#E2E8F0" stroke-width="4"/>
  <rect x="568" y="262" width="182" height="24" rx="12" fill="#1D3461"/>
  <rect x="568" y="332" width="494" height="24" rx="12" fill="#E8EEF7"/>
  <rect x="568" y="390" width="428" height="24" rx="12" fill="#E8EEF7"/>
  <rect x="568" y="448" width="460" height="24" rx="12" fill="#E8EEF7"/>
  <rect x="568" y="532" width="210" height="46" rx="23" fill="#F5821F"/>
</svg>
